<svg xmlns="http://www.w3.org/2000/svg"><symbol id="social-500px" viewBox="0 0 64 64"><path fill="currentColor" d="M22.5 37.4s.2.5.3.7c.5 1.2 1.2 2.3 2.2 3.2.9.9 2 1.7 3.2 2.2 1.3.5 2.6.8 4 .8s2.7-.3 4-.8c1.2-.5 2.3-1.2 3.2-2.2.9-.9 1.7-2 2.2-3.2.5-1.3.8-2.6.8-4s-.3-2.7-.8-4c-.5-1.2-1.2-2.3-2.2-3.2s-2-1.7-3.2-2.2c-1.3-.5-2.6-.8-4-.8s-2.8.3-4 .8c-1 .4-2.7 1.5-3.6 2.5v-8.4h14c.5 0 .5-.7.5-1 0-.2 0-.9-.5-1H23.3c-.4 0-.7.3-.7.7v11.8c0 .4.5.7.9.7.9.2 1.1-.1 1.3-.4.3-.5 1.3-1.5 1.3-1.5 1.6-1.6 3.7-2.4 5.9-2.4s4.3.9 5.9 2.4c1.6 1.6 2.4 3.6 2.4 5.9 0 2.2-.9 4.3-2.4 5.9-1.5 1.5-3.7 2.4-5.9 2.4-1.5 0-2.9-.4-4.2-1.2V34c0-1 .4-2 1.1-2.8.8-.9 1.9-1.4 3.1-1.4 1.2 0 2.2.4 3 1.2.8.8 1.2 1.8 1.2 3 0 2.4-1.9 4.3-4.3 4.3-.5 0-1.3-.2-1.3-.2-.4-.1-.6.6-.6.8-.3.9.1 1 .2 1 .8.2 1.3.3 1.9.3 3.4 0 6.1-2.8 6.1-6.1 0-3.4-2.8-6.1-6.1-6.1-1.7 0-3.2.6-4.4 1.8-1.1 1.1-1.8 2.6-1.8 4v5.9c-.6-.7-1.3-1.8-1.7-2.9-.2-.4-.5-.4-1-.2-.2.1-.8.3-.7.8zm7.2-1.7c0 .2.2.4.3.5.2.2.4.3.5.3.1 0 .2-.1.3-.1.1-.1 1-1.1 1.1-1.1l1.1 1.1c.1.1.2.2.3.2.2 0 .4-.1.6-.3.5-.5.2-.7.1-.8l-1-1.2 1.1-1.1c.2-.3 0-.6-.2-.8-.3-.3-.6-.4-.8-.2L32 33.3l-1.1-1.1c-.1-.1-.1-.1-.2-.1-.2 0-.3.1-.5.3-.4.3-.4.6-.2.8l1.1 1.1-1.1 1.1c-.2.1-.3.2-.3.3zm2.5-15.4c-1.8 0-3.8.4-5.2 1-.2.1-.2.2-.3.4 0 .2 0 .4.1.7.1.2.3.8.8.6 1.5-.6 3.1-.9 4.5-.9 1.7 0 3.3.3 4.8 1 1.2.5 2.3 1.2 3.6 2.3.1.1.2.1.3.1.2 0 .5-.2.7-.5.3-.4.6-.7.2-1-1.2-1.1-2.5-2-4.1-2.6-1.6-.7-3.5-1.1-5.4-1.1zM42 42.8c-.2-.2-.4-.3-.6-.4-.2 0-.3 0-.4.1l-.1.1c-1.1 1.1-2.4 2-3.9 2.6-1.5.6-3.1 1-4.8 1-1.7 0-3.3-.3-4.8-1-1.5-.6-2.8-1.5-3.9-2.6-1.2-1.2-2.1-2.5-2.6-3.9-.6-1.4-.7-2.4-.8-2.8v-.1c-.1-.4-.4-.4-1-.3-.2 0-.9.1-.8.6.2 1.1.5 2.2.9 3.3.7 1.7 1.7 3.2 3 4.5 1.3 1.3 2.8 2.3 4.5 3 1.7.7 3.6 1.1 5.5 1.1s3.7-.4 5.5-1.1c1.7-.7 3.2-1.7 4.5-3l.1-.1c.2-.2.3-.5-.3-1z"/></symbol><symbol id="social-behance" viewBox="0 0 64 64"><path fill="currentColor" d="M29.1 31c.8-.4 1.5-.9 1.9-1.5.4-.6.6-1.4.6-2.3 0-.9-.1-1.6-.4-2.2-.3-.6-.7-1.1-1.2-1.4-.5-.4-1.1-.6-1.9-.8-.7-.2-1.5-.2-2.4-.2H17v18.5h8.9c.8 0 1.6-.1 2.4-.3.8-.2 1.5-.5 2.1-1 .6-.4 1.1-1 1.5-1.7.4-.7.5-1.5.5-2.4 0-1.2-.3-2.1-.8-3-.5-.8-1.4-1.4-2.5-1.7zm-8-5.3h3.8c.4 0 .7 0 1 .1l.9.3c.3.2.5.4.6.6.2.3.2.6.2 1.1 0 .8-.2 1.3-.7 1.7-.5.3-1.1.5-1.8.5H21v-4.3zm7.1 11c-.2.3-.4.6-.7.7-.3.2-.6.3-1 .4-.4.1-.7.1-1.1.1h-4.3v-5.1h4.4c.9 0 1.6.2 2.1.6.5.4.8 1.1.8 2 0 .6-.1 1-.2 1.3zm18.5-4.4c-.2-.9-.6-1.8-1.2-2.5-.5-.8-1.2-1.4-2-1.8-.8-.4-1.8-.7-3-.7-1 0-1.9.2-2.8.5-.8.4-1.6.9-2.2 1.5-.6.6-1.1 1.4-1.4 2.2-.3.9-.5 1.8-.5 2.8 0 1 .2 2 .5 2.8.3.9.8 1.6 1.4 2.2.6.6 1.3 1.1 2.2 1.4.9.3 1.8.5 2.9.5 1.5 0 2.8-.3 3.9-1s1.9-1.8 2.4-3.4h-3.2c-.1.4-.4.8-1 1.2-.5.4-1.2.6-1.9.6-1 0-1.8-.3-2.4-.8-.6-.5-.9-1.5-.9-2.6H47c0-1 0-2-.3-2.9zm-9.4.6c0-.3.1-.6.2-.9.1-.3.3-.6.5-.9.2-.3.5-.5.9-.7.4-.2.9-.3 1.5-.3.9 0 1.6.3 2.1.7.4.5.8 1.2.8 2.1h-6zm6.8-9.1h-7.5v1.8h7.5v-1.8z"/></symbol><symbol id="social-codepen" viewBox="0 0 64 64"><path fill="currentColor" d="m19.7 36.9 10.9 7.2v-6.5l-6-4-4.9 3.3zm-1-7.1v4.4l3.4-2.2-3.4-2.2zm11.9-3.4v-6.5l-10.9 7.2 4.9 3.2 6-3.9zm13.7.7-10.9-7.2v6.5l6 4 4.9-3.3zM32 28.8 27.1 32l4.9 3.2 4.9-3.2-4.9-3.2zM48 37c0 .5-.2.9-.6 1.1l-14.6 9.6c-.5.3-1 .3-1.5 0l-14.6-9.6c-.5-.2-.7-.7-.7-1.1V27c0-.5.2-.9.6-1.1l14.6-9.6c.5-.3 1-.3 1.5 0l14.6 9.6c.4.3.6.7.6 1.1v10zm-14.6.6v6.5l10.9-7.2-4.9-3.2-6 3.9zm11.9-3.4v-4.4L41.9 32l3.4 2.2z"/></symbol><symbol id="social-dribbble" viewBox="0 0 64 64"><path fill="currentColor" d="M32 48c-8.8 0-16-7.2-16-16s7.2-16 16-16 16 7.2 16 16-7.2 16-16 16zm13.5-13.8c-.5-.2-4.2-1.3-8.5-.6 1.8 4.9 2.5 8.9 2.7 9.7 3-2 5.2-5.3 5.8-9.1zm-8.2 10.4c-.2-1.2-1-5.4-2.9-10.4h-.1c-7.7 2.7-10.5 8-10.7 8.5 2.3 1.8 5.2 2.9 8.4 2.9 1.9.1 3.7-.3 5.3-1zm-15.5-3.4c.3-.5 4.1-6.7 11.1-9 .2-.1.4-.1.5-.2-.3-.8-.7-1.6-1.1-2.3-6.8 2-13.4 2-14 1.9v.4c0 3.5 1.4 6.7 3.5 9.2zm-3.2-12c.6 0 6.2 0 12.6-1.7-2.3-4-4.7-7.4-5.1-7.9-3.7 1.9-6.6 5.4-7.5 9.6zm10.2-10.5c.4.5 2.9 3.9 5.1 8 4.9-1.8 6.9-4.6 7.2-4.9-2.4-2.1-5.6-3.4-9.1-3.4-1.1 0-2.2.1-3.2.3zm13.8 4.7c-.3.4-2.6 3.3-7.6 5.4.3.7.6 1.3.9 2 .1.2.2.5.3.7 4.5-.6 9.1.3 9.5.4-.1-3.2-1.2-6.2-3.1-8.5z"/></symbol><symbol id="social-dropbox" viewBox="0 0 64 64"><path fill="currentColor" d="M25.4 17.1 16 23.3l6.5 5.2 9.5-5.9-6.6-5.5zM16 33.7l9.4 6.1 6.6-5.5-9.5-5.9-6.5 5.3zm16 .6 6.6 5.5 9.4-6.1-6.5-5.2-9.5 5.8zm16-11-9.4-6.1-6.6 5.4 9.5 5.9 6.5-5.2zM32 35.5 25.4 41l-2.8-1.8v2.1L32 47l9.4-5.7v-2.1L38.6 41 32 35.5z"/></symbol><symbol id="social-email" viewBox="0 0 64 64"><path fill="currentColor" d="M17 22v20h30V22H17zm24.1 3L32 32.1 22.9 25h18.2zM20 39V26.6l12 9.3 12-9.3V39H20z"/></symbol><symbol id="social-facebook" viewBox="0 0 64 64"><path fill="currentColor" d="M34.1 47V33.3h4.6l.7-5.3h-5.3v-3.4c0-1.5.4-2.6 2.6-2.6h2.8v-4.8c-.5-.1-2.2-.2-4.1-.2-4.1 0-6.9 2.5-6.9 7v4H24v5.3h4.6V47h5.5z"/></symbol><symbol id="social-flickr" viewBox="0 0 64 64"><path fill="currentColor" d="M32 16c-8.8 0-16 7.2-16 16s7.2 16 16 16 16-7.2 16-16-7.2-16-16-16zm-6 21c-2.8 0-5-2.2-5-5s2.2-5 5-5 5 2.2 5 5-2.2 5-5 5zm12 0c-2.8 0-5-2.2-5-5s2.2-5 5-5 5 2.2 5 5-2.2 5-5 5z"/></symbol><symbol id="social-foursquare" viewBox="0 0 64 64"><path fill="currentColor" d="M41.5 17H25c-2.3 0-3 1.7-3 2.8v26.3c0 1.2.7 1.7 1 1.8.4.1 1.4.3 2-.4 0 0 7.8-9.1 7.9-9.2.2-.2.2-.2.4-.2h5.1c2.1 0 2.5-1.5 2.7-2.4.2-.7 2.3-11.3 2.9-14.7.6-2.6-.1-4-2.5-4zm-.4 18.7c.2-.7 2.3-11.3 2.9-14.7m-3.5.5-.7 3.6c-.1.4-.6.8-1 .8h-6.4c-.7 0-1.2.5-1.2 1.2v.8c0 .7.5 1.2 1.2 1.2h5.5c.5 0 1 .6.9 1.1-.1.5-.6 3.3-.7 3.6-.1.3-.4.8-1 .8h-4.5c-.8 0-1.1.1-1.6.8-.5.7-5.4 6.5-5.4 6.5 0 .1-.1 0-.1 0V21.4c0-.5.4-1 1-1h13.3c.4 0 .8.5.7 1.1z"/></symbol><symbol id="social-github" viewBox="0 0 64 64"><path fill="currentColor" d="M32 16c-8.8 0-16 7.2-16 16 0 7.1 4.6 13.1 10.9 15.2.8.1 1.1-.3 1.1-.8v-2.7c-4.5 1-5.4-2.1-5.4-2.1-.7-1.8-1.8-2.3-1.8-2.3-1.5-1 .1-1 .1-1 1.6.1 2.5 1.6 2.5 1.6 1.4 2.4 3.7 1.7 4.7 1.3.1-1 .6-1.7 1-2.1-3.6-.4-7.3-1.8-7.3-7.9 0-1.7.6-3.2 1.6-4.3-.2-.4-.7-2 .2-4.2 0 0 1.3-.4 4.4 1.6 1.3-.4 2.6-.5 4-.5s2.7.2 4 .5c3.1-2.1 4.4-1.6 4.4-1.6.9 2.2.3 3.8.2 4.2 1 1.1 1.6 2.5 1.6 4.3 0 6.1-3.7 7.5-7.3 7.9.6.5 1.1 1.5 1.1 3v4.4c0 .4.3.9 1.1.8C43.4 45.1 48 39.1 48 32c0-8.8-7.2-16-16-16z"/></symbol><symbol id="social-google" viewBox="0 0 64 64"><path fill="currentColor" d="M26.182 30.545v3.491h5.775c-.233 1.498-1.745 4.393-5.775 4.393-3.476 0-6.313-2.88-6.313-6.429 0-3.549 2.836-6.429 6.313-6.429 1.978 0 3.302.844 4.058 1.571l2.764-2.662c-1.775-1.658-4.073-2.662-6.822-2.662A10.175 10.175 0 0 0 16 32a10.175 10.175 0 0 0 10.182 10.182c5.876 0 9.775-4.131 9.775-9.949 0-.669-.073-1.178-.16-1.687h-9.615zm18.909 0v-2.909h-2.909v2.909h-2.909v2.909h2.909v2.909h2.909v-2.909H48v-2.909h-2.909z"/></symbol><symbol id="social-googleplay" viewBox="0 0 64 64"><path fill="currentColor" d="m24.4 45.6 16-8.8-3.6-3.6-12.4 12.4zm-2.2-27.1c-.1.2-.2.5-.2.9v25.1c0 .4.1.6.2.9L35.6 32 22.2 18.5zm24.9 12.3-5-2.8-4 4 4 4 5-2.8c1.2-.7 1.2-1.8 0-2.4zm-6.7-3.7-15.9-8.8 12.3 12.3 3.6-3.5z"/></symbol><symbol id="social-instagram" viewBox="0 0 64 64"><path fill="currentColor" d="M46.91 25.816c-.073-1.597-.326-2.687-.697-3.641a7.351 7.351 0 0 0-1.73-2.657 7.343 7.343 0 0 0-2.657-1.73c-.954-.371-2.045-.624-3.641-.697C36.585 17.017 36.074 17 32 17s-4.585.017-6.184.09c-1.597.073-2.687.326-3.641.697a7.351 7.351 0 0 0-2.657 1.73 7.343 7.343 0 0 0-1.73 2.657c-.371.954-.624 2.045-.697 3.641C17.017 27.415 17 27.926 17 32s.017 4.585.09 6.184c.073 1.597.326 2.687.697 3.641a7.351 7.351 0 0 0 1.73 2.657 7.343 7.343 0 0 0 2.657 1.73c.954.371 2.045.624 3.641.697 1.6.074 2.111.091 6.185.091s4.585-.017 6.184-.09c1.597-.073 2.687-.326 3.641-.697a7.351 7.351 0 0 0 2.657-1.73 7.343 7.343 0 0 0 1.73-2.657c.371-.954.624-2.045.697-3.641.074-1.6.091-2.111.091-6.185s-.017-4.585-.09-6.184zm-2.7 12.245c-.067 1.462-.311 2.257-.516 2.785-.272.7-.597 1.2-1.122 1.725a4.648 4.648 0 0 1-1.725 1.122c-.529.205-1.323.45-2.785.516-1.581.072-2.056.087-6.061.087s-4.48-.015-6.061-.087c-1.462-.067-2.257-.311-2.785-.516-.7-.272-1.2-.597-1.725-1.122a4.648 4.648 0 0 1-1.122-1.725c-.205-.529-.45-1.323-.516-2.785-.072-1.582-.087-2.056-.087-6.061s.015-4.48.087-6.061c.067-1.462.311-2.257.516-2.785.272-.7.597-1.2 1.122-1.725a4.648 4.648 0 0 1 1.725-1.122c.529-.205 1.323-.45 2.785-.516 1.582-.072 2.056-.087 6.061-.087s4.48.015 6.061.087c1.462.067 2.257.311 2.785.516.7.272 1.2.597 1.725 1.122.525.525.85 1.025 1.122 1.725.205.529.45 1.323.516 2.785.072 1.582.087 2.056.087 6.061s-.015 4.48-.087 6.061zM32 24.297a7.703 7.703 0 1 0 0 15.407 7.703 7.703 0 0 0 0-15.407zM32 37a5 5 0 1 1 .001-10.001A5 5 0 0 1 32 37zm8.007-14.807a1.8 1.8 0 1 0 0 3.6 1.8 1.8 0 0 0 0-3.6z"/></symbol><symbol id="social-itunes" viewBox="0 0 64 64"><path fill="currentColor" d="M41.784 28.836c0 3.5.002 7-.002 10.499 0 .767-.105 1.519-.446 2.217-.53 1.086-1.399 1.768-2.55 2.095a8.54 8.54 0 0 1-1.965.318c-1.749.083-3.261-1.103-3.574-2.823a3.455 3.455 0 0 1 1.91-3.715c.595-.294 1.23-.458 1.871-.596.695-.15 1.393-.282 2.084-.441.504-.116.84-.424.939-.948.023-.116.033-.236.033-.355.002-3.336.002-6.67-.002-10.005 0-.114-.019-.23-.047-.34-.072-.277-.274-.446-.559-.43a6.28 6.28 0 0 0-.873.122c-1.397.275-2.793.559-4.189.84-1.425.286-2.851.576-4.278.864l-2.525.51c-.03.006-.059.016-.088.023-.509.141-.693.374-.717.9-.003.08-.002.16-.002.241-.002 4.782 0 9.565-.003 14.345 0 .773-.086 1.537-.396 2.255-.512 1.18-1.416 1.914-2.636 2.269a8.133 8.133 0 0 1-1.976.316c-1.762.066-3.225-1.105-3.527-2.838-.261-1.494.422-3.098 2.119-3.816.656-.275 1.344-.427 2.036-.571.527-.111 1.056-.211 1.582-.324.703-.153 1.07-.595 1.1-1.313.003-.094.002-.183.002-.277 0-5.44 0-10.882.003-16.323 0-.227.023-.46.077-.681.128-.524.502-.823 1.003-.953.469-.122.947-.207 1.422-.304l4.042-.814 4.176-.843c1.23-.249 2.46-.501 3.693-.743.404-.08.814-.161 1.22-.194.57-.045.961.313 1.019.886.014.136.022.274.022.412.004 3.513.004 7.024.002 10.535z"/></symbol><symbol id="social-linkedin" viewBox="0 0 64 64"><path fill="currentColor" d="M20.4 44h5.4V26.6h-5.4V44zm2.7-26c-1.7 0-3.1 1.4-3.1 3.1 0 1.7 1.4 3.1 3.1 3.1 1.7 0 3.1-1.4 3.1-3.1 0-1.7-1.4-3.1-3.1-3.1zm16.4 8.2c-2.6 0-4.4 1.4-5.1 2.8h-.1v-2.4h-5.2V44h5.4v-8.6c0-2.3.4-4.5 3.2-4.5 2.8 0 2.8 2.6 2.8 4.6V44H46v-9.5c0-4.7-1-8.3-6.5-8.3z"/></symbol><symbol id="social-medium" viewBox="0 0 64 64"><path fill="currentColor" d="M46.908 23.95c-.006-.005-.011-.01-.018-.014l-.01-.005-9.05-4.525a.937.937 0 0 0-.19-.068 1.034 1.034 0 0 0-1.127.443l-5.21 8.467 6.538 10.625 9.095-14.779a.11.11 0 0 0-.028-.144zM28.433 35.958 37 40.241 28.433 26.32v9.638zm9.854 4.926 7.052 3.526c.917.459 1.661.138 1.661-.717V26.726l-8.713 14.158zm-11.341-16.92-8.839-4.419a1.013 1.013 0 0 0-.449-.118c-.387 0-.659.299-.659.802v19.083c0 .511.374 1.116.831 1.344l7.785 3.892c.2.1.39.147.561.147.484 0 .823-.374.823-1.003V24.051a.094.094 0 0 0-.053-.087z"/></symbol><symbol id="social-pinterest" viewBox="0 0 64 64"><path fill="currentColor" d="M32 16c-8.8 0-16 7.2-16 16 0 6.6 3.9 12.2 9.6 14.7 0-1.1 0-2.5.3-3.7.3-1.3 2.1-8.7 2.1-8.7s-.5-1-.5-2.5c0-2.4 1.4-4.1 3.1-4.1 1.5 0 2.2 1.1 2.2 2.4 0 1.5-.9 3.7-1.4 5.7-.4 1.7.9 3.1 2.5 3.1 3 0 5.1-3.9 5.1-8.5 0-3.5-2.4-6.1-6.7-6.1-4.9 0-7.9 3.6-7.9 7.7 0 1.4.4 2.4 1.1 3.1.3.3.3.5.2.9-.1.3-.3 1-.3 1.3-.1.4-.4.6-.8.4-2.2-.9-3.3-3.4-3.3-6.1 0-4.5 3.8-10 11.4-10 6.1 0 10.1 4.4 10.1 9.2 0 6.3-3.5 11-8.6 11-1.7 0-3.4-.9-3.9-2 0 0-.9 3.7-1.1 4.4-.3 1.2-1 2.5-1.6 3.4 1.4.4 3 .7 4.5.7 8.8 0 16-7.2 16-16C48 23.2 40.8 16 32 16z"/></symbol><symbol id="social-reddit" viewBox="0 0 64 64"><path fill="currentColor" d="M47.8 30.7c0-2.1-1.7-3.8-3.8-3.8-.9 0-1.7.3-2.4.9-2.3-1.4-5.2-2.4-8.5-2.5l1.7-5.3 4.6 1.1c.1 1.6 1.5 3 3.2 3 1.8 0 3.2-1.4 3.2-3.2s-1.4-3.2-3.2-3.2c-1.2 0-2.3.7-2.8 1.7l-5.3-1.2c-.4-.1-.9.1-1 .6l-2.1 6.5c-3.5.1-6.7 1-9.1 2.6-.7-.5-1.5-.9-2.4-.9-2.1 0-3.8 1.7-3.8 3.8 0 1.3.7 2.5 1.7 3.1 0 .3-.1.6-.1.9 0 5.3 6.4 9.6 14.2 9.6s14.2-4.3 14.2-9.6c0-.3 0-.6-.1-.9 1.2-.7 1.8-1.9 1.8-3.2zm-5.2-11.3c.8 0 1.5.7 1.5 1.5s-.7 1.5-1.5 1.5-1.5-.7-1.5-1.5c0-.9.7-1.5 1.5-1.5zM17.8 30.7c0-1.2.9-2.1 2.1-2.1.3 0 .6.1.9.2-1.1.9-2 2-2.5 3.2-.2-.3-.5-.8-.5-1.3zM32 42.6c-6.9 0-12.5-3.5-12.5-7.9s5.6-7.9 12.5-7.9 12.5 3.5 12.5 7.9-5.6 7.9-12.5 7.9zm13.6-10.5c-.5-1.2-1.4-2.3-2.5-3.2.3-.1.6-.2.9-.2 1.2 0 2.1.9 2.1 2.1.1.4-.2.9-.5 1.3zm-16.2 1c0-1.2-1-2.1-2.1-2.1s-2.1 1-2.1 2.1 1 2.2 2.1 2.2 2.1-1.1 2.1-2.2zm7.3-2.2c-1.2 0-2.1 1-2.1 2.1s1 2.2 2.1 2.2c1.2 0 2.1-1 2.1-2.2s-.9-2.1-2.1-2.1zm-.7 7.3c-.8.8-2.1 1.1-4 1.1s-3.2-.4-4-1.1c-.3-.3-.9-.3-1.2 0-.3.3-.3.9 0 1.2 1.1 1.1 2.8 1.6 5.2 1.6 2.4 0 4.1-.5 5.2-1.6.3-.3.3-.9 0-1.2-.3-.4-.9-.4-1.2 0z"/></symbol><symbol id="social-soundcloud" viewBox="0 0 64 64"><path fill="currentColor" d="M43.6 30c-.6 0-1.2.1-1.7.3-.3-4-3.7-7.1-7.7-7.1-1 0-2 .2-2.8.5-.3.2-.4.3-.4.6v13.9c0 .3.2.5.5.5h12.2c2.4 0 4.4-1.9 4.4-4.4C48 31.9 46 30 43.6 30zm-16.4-4.9c-.7 0-1.2.5-1.2 1.1v11.3c0 .7.6 1.2 1.2 1.2.7 0 1.2-.6 1.2-1.2V26.2c0-.6-.6-1.1-1.2-1.1zm-5 2.7c-.7 0-1.2.5-1.2 1.1v8.5c0 .7.6 1.2 1.2 1.2s1.2-.6 1.2-1.2V29c0-.7-.5-1.2-1.2-1.2zm-5 2.4c-.7 0-1.2.5-1.2 1.1v4.9c0 .7.6 1.2 1.2 1.2.7 0 1.2-.6 1.2-1.2v-4.9c.1-.6-.5-1.1-1.2-1.1z"/></symbol><symbol id="social-spotify" viewBox="0 0 64 64"><path fill="currentColor" d="M32 16c-8.8 0-16 7.2-16 16s7.2 16 16 16 16-7.2 16-16-7.2-16-16-16m7.3 23.1c-.3.5-.9.6-1.4.3-3.8-2.3-8.5-2.8-14.1-1.5-.5.1-1.1-.2-1.2-.7-.1-.5.2-1.1.8-1.2 6.1-1.4 11.3-.8 15.5 1.8.6.2.7.8.4 1.3m2-4.4c-.4.6-1.1.8-1.7.4-4.3-2.6-10.9-3.4-15.9-1.9-.7.2-1.4-.2-1.6-.8-.2-.7.2-1.4.8-1.6 5.8-1.8 13-.9 18 2.1.6.5.8 1.2.4 1.8m.2-4.5c-5.2-3.1-13.7-3.3-18.6-1.9-.8.2-1.6-.2-1.9-1-.2-.8.2-1.6 1-1.9 5.7-1.7 15-1.4 21 2.1.7.4.9 1.3.5 2.1s-1.3 1-2 .6"/></symbol><symbol id="social-stumbleupon" viewBox="0 0 64 64"><path fill="currentColor" d="M42.5 30.3v4.9c0 .9-.8 1.7-1.7 1.7s-1.7-.8-1.7-1.7v-4.9l-2.7 1.1-2.7-1.1v4.9c0 4 3.2 7.2 7.2 7.2s7.2-3.2 7.2-7.2v-4.9h-5.6zm-8.8-3.4 2.7 1.1 2.7-1.1v-2.1c0-4-3.2-7.2-7.2-7.2s-7.2 3.2-7.2 7.2v10.4c0 .9-.8 1.7-1.7 1.7s-1.7-.8-1.7-1.7v-4.9H16v4.9c0 4 3.2 7.2 7.2 7.2s7.2-3.2 7.2-7.2V24.8c0-.9.8-1.7 1.7-1.7s1.7.8 1.7 1.7v2.1z"/></symbol><symbol id="social-tumblr" viewBox="0 0 64 64"><path fill="currentColor" d="M39.2 41c-.6.3-1.6.5-2.4.5-2.4.1-2.9-1.7-2.9-3v-9.3h6v-4.5h-6V17h-4.4c-.1 0-.2.1-.2.2-.3 2.3-1.4 6.4-5.9 8.1v3.9h3V39c0 3.4 2.5 8.1 9 8 2.2 0 4.7-1 5.2-1.8L39.2 41z"/></symbol><symbol id="social-twitch" viewBox="0 0 64 64"><path fill="currentColor" d="M40 25.6h-2.5v7.6H40v-7.6zm-7 0h-2.5v7.6H33v-7.6zM20.9 18 19 23.1v20.4h7v3.8h3.8l3.8-3.8h5.7l7.6-7.6V18h-26zm23.6 16.5L40 39h-7l-3.8 3.8V39h-5.7V20.5h21v14z"/></symbol><symbol id="social-twitter" viewBox="0 0 64 64"><path fill="currentColor" d="M48 22.1c-1.2.5-2.4.9-3.8 1 1.4-.8 2.4-2.1 2.9-3.6-1.3.8-2.7 1.3-4.2 1.6-1.2-1.3-2.9-2.1-4.7-2.1-3.6 0-6.6 2.9-6.6 6.6 0 .5.1 1 .2 1.5-5.5-.3-10.3-2.9-13.5-6.9-.6 1-.9 2.1-.9 3.3 0 2.3 1.2 4.3 2.9 5.5-1.1 0-2.1-.3-3-.8v.1c0 3.2 2.3 5.8 5.3 6.4-.6.1-1.1.2-1.7.2-.4 0-.8 0-1.2-.1.8 2.6 3.3 4.5 6.1 4.6-2.2 1.8-5.1 2.8-8.2 2.8-.5 0-1.1 0-1.6-.1C18.9 44 22.4 45 26.1 45c12.1 0 18.7-10 18.7-18.7v-.8c1.2-1 2.3-2.1 3.2-3.4z"/></symbol><symbol id="social-vimeo" viewBox="0 0 64 64"><path fill="currentColor" d="M47 25c-.1 2.9-2.2 6.9-6.1 12-4.1 5.3-7.5 8-10.4 8-1.7 0-3.2-1.6-4.4-4.8-.8-3-1.6-5.9-2.4-8.9-.9-3.2-1.9-4.8-2.9-4.8-.2 0-1 .5-2.4 1.4L17 26c1.5-1.3 2.9-2.6 4.4-3.9 2-1.7 3.5-2.6 4.4-2.7 2.3-.2 3.8 1.4 4.3 4.8.6 3.7 1 6 1.2 6.9.7 3.1 1.4 4.6 2.2 4.6.6 0 1.6-1 2.8-3 1.3-2 1.9-3.5 2-4.5.2-1.7-.5-2.6-2-2.6-.7 0-1.5.2-2.2.5 1.5-4.8 4.3-7.2 8.4-7 3.2 0 4.7 2 4.5 5.9z"/></symbol><symbol id="social-vine" viewBox="0 0 64 64"><path fill="currentColor" d="M45.2 31.9c-.8.2-1.5.3-2.2.3-3.8 0-6.7-2.6-6.7-7.2 0-2.3.9-3.4 2.1-3.4 1.2 0 2 1.1 2 3.2 0 1.2-.3 2.5-.6 3.3 0 0 1.2 2 4.4 1.4.7-1.5 1-3.5 1-5.2 0-4.6-2.3-7.3-6.6-7.3-4.4 0-7 3.4-7 7.9 0 4.4 2.1 8.2 5.5 10-1.4 2.9-3.3 5.4-5.2 7.3-3.5-4.2-6.6-9.8-7.9-20.7h-5.1c2.4 18.1 9.4 23.9 11.2 25 1.1.6 2 .6 2.9.1 1.5-.9 6-5.4 8.6-10.7 1.1 0 2.3-.1 3.6-.4v-3.6z"/></symbol><symbol id="social-wordpress" viewBox="0 0 64 64"><path fill="currentColor" d="M2.268 16q0-2.911 1.196-5.589l6.554 17.946q-3.5-1.696-5.625-5.018T2.268 16zm23-.696q0 .339-.045.688t-.179.884-.205.786-.313 1.054-.313 1.036l-1.357 4.571-4.964-14.75q.821-.054 1.571-.143.339-.036.464-.33t-.045-.554-.509-.241l-3.661.179q-1.339-.018-3.607-.179-.214-.018-.366.089t-.205.268-.027.33.161.295.348.143l1.429.143 2.143 5.857-3 9-5-14.857q.821-.054 1.571-.143.339-.036.464-.33t-.045-.554-.509-.241l-3.661.179q-.125 0-.411-.009t-.464-.009q1.875-2.857 4.902-4.527t6.563-1.67q2.625 0 5.009.946t4.259 2.661h-.179q-.982 0-1.643.723t-.661 1.705q0 .214.036.429t.071.384.143.411.161.375.214.402.223.375.259.429.25.411q1.125 1.911 1.125 3.786zm-9.036 1.892 4.232 11.554q.018.107.089.196-2.25.786-4.554.786-2 0-3.875-.571zm11.804-7.785q1.696 3.107 1.696 6.589 0 3.732-1.857 6.884t-4.982 4.973l4.196-12.107q1.054-3.018 1.054-4.929 0-.75-.107-1.411zM16 0q3.25 0 6.214 1.268t5.107 3.411 3.411 5.107T32 16t-1.268 6.214-3.411 5.107-5.107 3.411T16 32t-6.214-1.268-5.107-3.411-3.411-5.107T0 16t1.268-6.214 3.411-5.107 5.107-3.411T16 0zm0 31.268q3.089 0 5.92-1.214t4.875-3.259 3.259-4.875T31.268 16t-1.214-5.92-3.259-4.875-4.875-3.259T16 .732t-5.92 1.214-4.875 3.259-3.259 4.875T.732 16t1.214 5.92 3.259 4.875 4.875 3.259T16 31.268z"/></symbol><symbol id="social-yelp" viewBox="0 0 64 64"><path fill="currentColor" d="M29.5 35.7c.5-.1.9-.6.9-1.2s-.3-1.2-.8-1.4l-1.5-.6c-5-2.1-5.2-2.1-5.5-2.1-.4 0-.7.2-1 .6-.5.8-.7 3.3-.5 5 .1.6.2 1 .3 1.3.2.4.5.6.9.6.2 0 .4 0 5.1-1.5.1 0 2.1-.7 2.1-.7zm2.7 1.9c-.6-.2-1.2-.1-1.5.4l-1 1.2c-3.5 4.1-3.7 4.3-3.7 4.5-.1.1-.1.3-.1.4 0 .2.1.4.3.6.8 1 4.7 2.4 6 2.2.4-.1.7-.3.9-.7-.1-.1-.1-.3-.1-5.2v-2.2c.1-.5-.3-1-.8-1.2zm.1-20.8c-.1-.4-.4-.7-.9-.8-1.3-.3-6.5 1.1-7.5 2.1-.3.3-.4.7-.3 1.1.2.3 6.5 10.4 6.5 10.4.9 1.5 1.7 1.3 2 1.2.3-.1 1-.3.9-2.1 0-2.1-.6-11.4-.7-11.9zm4.6 16.6s-.1.1 0 0c.2-.1.7-.2 1.5-.4 5.3-1.3 5.5-1.3 5.7-1.5.3-.2.5-.6.5-1-.1-1.3-2.4-4.7-3.5-5.2-.4-.2-.8-.2-1.1 0-.2.1-.4.3-3.2 4.2 0 0-1.3 1.7-1.3 1.8-.3.4-.3 1 0 1.5s.8.8 1.4.6zm7.5 5.2c-.2-.1-.3-.2-5-1.7 0 0-2-.7-2.1-.7-.5-.2-1.1 0-1.4.5-.4.5-.5 1.1-.1 1.6l.8 1.3c2.8 4.5 3 4.8 3.2 5 .3.2.7.3 1.1.1 1.2-.5 3.7-3.7 3.9-5 0-.5-.1-.9-.4-1.1z"/></symbol><symbol id="social-youtube" viewBox="0 0 64 64"><path fill="currentColor" d="M46.7 26s-.3-2.1-1.2-3c-1.1-1.2-2.4-1.2-3-1.3-4.2-.3-10.5-.3-10.5-.3s-6.3 0-10.5.3c-.6.1-1.9.1-3 1.3-.9.9-1.2 3-1.2 3s-.3 2.4-.3 4.9v2.3c0 2.4.3 4.9.3 4.9s.3 2.1 1.2 3c1.1 1.2 2.6 1.2 3.3 1.3 2.4.2 10.2.3 10.2.3s6.3 0 10.5-.3c.6-.1 1.9-.1 3-1.3.9-.9 1.2-3 1.2-3s.3-2.4.3-4.9v-2.3c0-2.5-.3-4.9-.3-4.9zm-17.8 9.9v-8.4l8.1 4.2-8.1 4.2z"/></symbol></svg>