<svg xmlns="http://www.w3.org/2000/svg" viewBox="0 0 64 64">
    <path fill="currentColor" d="M22.5,37.4c0,0,0.2,0.5,0.3,0.7c0.5,1.2,1.2,2.3,2.2,3.2c0.9,0.9,2,1.7,3.2,2.2c1.3,0.5,2.6,0.8,4,0.8c1.4,0,2.7-0.3,4-0.8c1.2-0.5,2.3-1.2,3.2-2.2c0.9-0.9,1.7-2,2.2-3.2c0.5-1.3,0.8-2.6,0.8-4c0-1.4-0.3-2.7-0.8-4c-0.5-1.2-1.2-2.3-2.2-3.2s-2-1.7-3.2-2.2c-1.3-0.5-2.6-0.8-4-0.8c-1.4,0-2.8,0.3-4,0.8c-1,0.4-2.7,1.5-3.6,2.5l0,0v-8.4h14c0.5,0,0.5-0.7,0.5-1c0-0.2,0-0.9-0.5-1H23.3c-0.4,0-0.7,0.3-0.7,0.7v11.8c0,0.4,0.5,0.7,0.9,0.7c0.9,0.2,1.1-0.1,1.3-0.4l0,0c0.3-0.5,1.3-1.5,1.3-1.5c1.6-1.6,3.7-2.4,5.9-2.4c2.2,0,4.3,0.9,5.9,2.4c1.6,1.6,2.4,3.6,2.4,5.9c0,2.2-0.9,4.3-2.4,5.9c-1.5,1.5-3.7,2.4-5.9,2.4c-1.5,0-2.9-0.4-4.2-1.2l0-7.1c0-1,0.4-2,1.1-2.8c0.8-0.9,1.9-1.4,3.1-1.4c1.2,0,2.2,0.4,3,1.2c0.8,0.8,1.2,1.8,1.2,3c0,2.4-1.9,4.3-4.3,4.3c-0.5,0-1.3-0.2-1.3-0.2C30.2,38,30,38.7,30,38.9c-0.3,0.9,0.1,1,0.2,1c0.8,0.2,1.3,0.3,1.9,0.3c3.4,0,6.1-2.8,6.1-6.1c0-3.4-2.8-6.1-6.1-6.1c-1.7,0-3.2,0.6-4.4,1.8c-1.1,1.1-1.8,2.6-1.8,4l0,0c0,0.2,0,4.5,0,5.9l0,0c-0.6-0.7-1.3-1.8-1.7-2.9c-0.2-0.4-0.5-0.4-1-0.2C23,36.7,22.4,36.9,22.5,37.4L22.5,37.4z M29.7,35.7c0,0.2,0.2,0.4,0.3,0.5l0,0c0.2,0.2,0.4,0.3,0.5,0.3c0.1,0,0.2-0.1,0.3-0.1c0.1-0.1,1-1.1,1.1-1.1l1.1,1.1c0.1,0.1,0.2,0.2,0.3,0.2c0.2,0,0.4-0.1,0.6-0.3c0.5-0.5,0.2-0.7,0.1-0.8L33,34.3l1.1-1.1c0.2-0.3,0-0.6-0.2-0.8c-0.3-0.3-0.6-0.4-0.8-0.2L32,33.3l-1.1-1.1c-0.1-0.1-0.1-0.1-0.2-0.1c-0.2,0-0.3,0.1-0.5,0.3c-0.4,0.3-0.4,0.6-0.2,0.8l1.1,1.1l-1.1,1.1C29.8,35.5,29.7,35.6,29.7,35.7z M32.2,20.3c-1.8,0-3.8,0.4-5.2,1c-0.2,0.1-0.2,0.2-0.3,0.4c0,0.2,0,0.4,0.1,0.7c0.1,0.2,0.3,0.8,0.8,0.6c1.5-0.6,3.1-0.9,4.5-0.9c1.7,0,3.3,0.3,4.8,1c1.2,0.5,2.3,1.2,3.6,2.3c0.1,0.1,0.2,0.1,0.3,0.1c0.2,0,0.5-0.2,0.7-0.5c0.3-0.4,0.6-0.7,0.2-1c-1.2-1.1-2.5-2-4.1-2.6C36,20.7,34.1,20.3,32.2,20.3z M42,42.8L42,42.8c-0.2-0.2-0.4-0.3-0.6-0.4c-0.2,0-0.3,0-0.4,0.1l-0.1,0.1c-1.1,1.1-2.4,2-3.9,2.6c-1.5,0.6-3.1,1-4.8,1c-1.7,0-3.3-0.3-4.8-1c-1.5-0.6-2.8-1.5-3.9-2.6c-1.2-1.2-2.1-2.5-2.6-3.9c-0.6-1.4-0.7-2.4-0.8-2.8c0,0,0-0.1,0-0.1c-0.1-0.4-0.4-0.4-1-0.3c-0.2,0-0.9,0.1-0.8,0.6l0,0c0.2,1.1,0.5,2.2,0.9,3.3c0.7,1.7,1.7,3.2,3,4.5c1.3,1.3,2.8,2.3,4.5,3c1.7,0.7,3.6,1.1,5.5,1.1c1.9,0,3.7-0.4,5.5-1.1c1.7-0.7,3.2-1.7,4.5-3c0,0,0.1-0.1,0.1-0.1C42.5,43.6,42.6,43.3,42,42.8z"/>
</svg>
