<svg xmlns="http://www.w3.org/2000/svg" viewBox="0 0 64 64">
    <path fill="currentColor" d="M19.7,36.9l10.9,7.2v-6.5l-6-4L19.7,36.9z M18.7,29.8v4.4l3.4-2.2L18.7,29.8z M30.6,26.4v-6.5 l-10.9,7.2l4.9,3.2L30.6,26.4z M44.3,27.1l-10.9-7.2v6.5l6,4L44.3,27.1z M32,28.8L27.1,32l4.9,3.2l4.9-3.2L32,28.8z M48,37 c0,0.5-0.2,0.9-0.6,1.1l-14.6,9.6c-0.5,0.3-1,0.3-1.5,0l-14.6-9.6C16.2,37.9,16,37.4,16,37V27c0-0.5,0.2-0.9,0.6-1.1l14.6-9.6 c0.5-0.3,1-0.3,1.5,0l14.6,9.6c0.4,0.3,0.6,0.7,0.6,1.1V37z M33.4,37.6v6.5l10.9-7.2l-4.9-3.2L33.4,37.6z M45.3,34.2v-4.4L41.9,32 L45.3,34.2z"/>
</svg>
