<svg xmlns="http://www.w3.org/2000/svg" viewBox="0 0 64 64">
    <path fill="currentColor" d="M26.182,30.545v3.491h5.775c-0.233,1.498-1.745,4.393-5.775,4.393c-3.476,0-6.313-2.88-6.313-6.429c0-3.549,2.836-6.429,6.313-6.429c1.978,0,3.302,0.844,4.058,1.571l2.764-2.662c-1.775-1.658-4.073-2.662-6.822-2.662C20.553,21.818,16,26.371,16,32c0,5.629,4.553,10.182,10.182,10.182c5.876,0,9.775-4.131,9.775-9.949c0-0.669-0.073-1.178-0.16-1.687H26.182z M45.091,30.545v-2.909h-2.909v2.909h-2.909v2.909h2.909v2.909h2.909v-2.909H48v-2.909H45.091z"/>
</svg>
