<svg xmlns="http://www.w3.org/2000/svg" viewBox="0 0 64 64">
    <path fill="currentColor" d="M47.8,30.7c0-2.1-1.7-3.8-3.8-3.8c-0.9,0-1.7,0.3-2.4,0.9c-2.3-1.4-5.2-2.4-8.5-2.5l1.7-5.3 l4.6,1.1c0.1,1.6,1.5,3,3.2,3c1.8,0,3.2-1.4,3.2-3.2s-1.4-3.2-3.2-3.2c-1.2,0-2.3,0.7-2.8,1.7l-5.3-1.2c-0.4-0.1-0.9,0.1-1,0.6 l-2.1,6.5c-3.5,0.1-6.7,1-9.1,2.6c-0.7-0.5-1.5-0.9-2.4-0.9c-2.1,0-3.8,1.7-3.8,3.8c0,1.3,0.7,2.5,1.7,3.1c0,0.3-0.1,0.6-0.1,0.9 c0,5.3,6.4,9.6,14.2,9.6s14.2-4.3,14.2-9.6c0-0.3,0-0.6-0.1-0.9C47.2,33.2,47.8,32,47.8,30.7z M42.6,19.4c0.8,0,1.5,0.7,1.5,1.5 c0,0.8-0.7,1.5-1.5,1.5s-1.5-0.7-1.5-1.5C41.1,20,41.8,19.4,42.6,19.4z M17.8,30.7c0-1.2,0.9-2.1,2.1-2.1c0.3,0,0.6,0.1,0.9,0.2 c-1.1,0.9-2,2-2.5,3.2C18.1,31.7,17.8,31.2,17.8,30.7z M32,42.6c-6.9,0-12.5-3.5-12.5-7.9s5.6-7.9,12.5-7.9s12.5,3.5,12.5,7.9 S38.9,42.6,32,42.6z M45.6,32.1c-0.5-1.2-1.4-2.3-2.5-3.2c0.3-0.1,0.6-0.2,0.9-0.2c1.2,0,2.1,0.9,2.1,2.1 C46.2,31.2,45.9,31.7,45.6,32.1z M29.4,33.1c0-1.2-1-2.1-2.1-2.1s-2.1,1-2.1,2.1s1,2.2,2.1,2.2S29.4,34.2,29.4,33.1z M36.7,30.9 c-1.2,0-2.1,1-2.1,2.1s1,2.2,2.1,2.2c1.2,0,2.1-1,2.1-2.2S37.9,30.9,36.7,30.9z M36,38.2c-0.8,0.8-2.1,1.1-4,1.1 c-1.9,0-3.2-0.4-4-1.1c-0.3-0.3-0.9-0.3-1.2,0c-0.3,0.3-0.3,0.9,0,1.2c1.1,1.1,2.8,1.6,5.2,1.6c2.4,0,4.1-0.5,5.2-1.6 c0.3-0.3,0.3-0.9,0-1.2C36.9,37.8,36.3,37.8,36,38.2z"/>
</svg>
